<?xml version="1.0" encoding="UTF-8"?><svg id="a" xmlns="http://www.w3.org/2000/svg" viewBox="0 0 74.38 73.56"><path d="M37.19,14.48c-13.39,0-24.25,9.18-24.25,20.5,0,4.88,2.02,9.36,5.38,12.88l-.05-.03s2.99,6.85-2.63,9.66c-2.99,2.81,3.51,1.05,3.51,1.05,0,0,5.27-.7,9.13-4.39l-.33-.21c2.85,.99,5.96,1.54,9.23,1.54,13.39,0,24.25-9.18,24.25-20.5s-10.86-20.5-24.25-20.5Zm1.64,32.11h-4.04v-13.88h4.04v13.88Zm-2-18.15c-1.71,0-3.09-1.38-3.09-3.09s1.38-3.09,3.09-3.09,3.09,1.38,3.09,3.09-1.38,3.09-3.09,3.09Z"/></svg>