<?xml version="1.0" encoding="UTF-8"?><svg id="a" xmlns="http://www.w3.org/2000/svg" viewBox="0 0 74.38 73.56"><path d="M37.19,13.78c-12.7,0-23,10.3-23,23s10.3,23,23,23,23-10.3,23-23-10.3-23-23-23Zm.16,37.39c-1.67,0-3.02-1.35-3.02-3.02s1.35-3.02,3.02-3.02,3.02,1.35,3.02,3.02-1.35,3.02-3.02,3.02Zm6.02-15.47c-3.78,3.44-3.71,4.74-3.71,4.74,0,0-2.06-.07-4.1-.07-.09-1.05,.04-2.07,2.1-4.07,2.73-2.79,3.02-3.74,3.02-3.74,0,0,1.67-4.43-1.51-5.44-4.53-1.07-5.38,3.48-5.38,3.48h-4.39c.14-2.35,2.1-4.73,2.1-4.73,0,0,2.68-3.51,7.18-3.02,4.5,.49,6.17,4.66,6.17,4.66,0,0,1.83,4.09-1.49,8.19Z"/></svg>