<?xml version="1.0" encoding="UTF-8"?><svg id="a" xmlns="http://www.w3.org/2000/svg" viewBox="0 0 74.38 73.56"><g><path d="M27.76,37.2c0-1.17,.95-2.12,2.12-2.12h15.9V16.26c0-2.01-1.63-3.65-3.65-3.65H14.01c-2.01,0-3.65,1.63-3.65,3.65V57.3c0,2.01,1.63,3.65,3.65,3.65h28.13c2.01,0,3.65-1.63,3.65-3.65v-17.98h-15.9c-1.17,0-2.12-.95-2.12-2.12Z"/><rect x="45.79" y="35.08" width=".09" height="4.24"/></g><path d="M63.39,35.36l-7.51-7.51c-.83-.83-2.17-.83-3,0h0c-.83,.83-.83,2.17,0,3l4.23,4.23h-11.71v4.24h11.74l-4.26,4.26c-.83,.83-.83,2.17,0,3,.83,.83,2.17,.83,3,0l7.51-7.51c.51-.51,.7-1.2,.59-1.86,.11-.65-.08-1.35-.59-1.86Z"/></svg>